<?xml version="1.0" standalone="no"?>
<!DOCTYPE svg PUBLIC "-//W3C//DTD SVG 20010904//EN"
 "http://www.w3.org/TR/2001/REC-SVG-20010904/DTD/svg10.dtd">
<svg version="1.0" xmlns="http://www.w3.org/2000/svg"
 width="512.000000pt" height="512.000000pt" viewBox="0 0 512.000000 512.000000"
 preserveAspectRatio="xMidYMid meet">

<g transform="translate(0.000000,512.000000) scale(0.100000,-0.100000)"
fill="#8f784b" stroke="none">
<path d="M293 5105 c-77 -21 -122 -47 -177 -102 -54 -53 -90 -121 -106 -198
-7 -34 -10 -317 -8 -840 3 -785 3 -790 25 -843 42 -102 123 -183 225 -225 53
-22 54 -22 873 -22 819 0 820 0 873 22 102 42 183 123 225 225 22 53 22 54 22
873 0 819 0 820 -22 873 -42 102 -123 183 -225 225 -53 22 -57 22 -853 24
-667 2 -809 0 -852 -12z"/>
<path d="M3160 5104 c-138 -37 -239 -141 -275 -281 -14 -54 -15 -160 -13 -855
3 -788 3 -793 25 -846 42 -102 123 -183 225 -225 53 -22 54 -22 873 -22 819 0
820 0 873 22 102 42 183 123 225 225 22 53 22 54 22 873 l0 820 -26 62 c-42
99 -113 170 -212 212 l-62 26 -800 2 c-681 2 -808 0 -855 -13z"/>
<path d="M290 2234 c-138 -37 -239 -141 -275 -281 -14 -53 -15 -161 -13 -854
l3 -794 26 -62 c15 -34 39 -77 55 -95 51 -59 93 -90 157 -117 l62 -26 820 0
c819 0 820 0 873 22 102 42 183 123 225 225 22 53 22 54 22 873 0 819 0 820
-22 873 -42 102 -123 183 -225 225 -53 22 -57 22 -853 24 -682 2 -808 0 -855
-13z"/>
<path d="M3180 2239 c-149 -30 -272 -156 -300 -310 -7 -37 -10 -329 -8 -840 3
-779 3 -784 25 -837 42 -102 123 -183 225 -225 53 -22 54 -22 873 -22 l820 0
62 26 c99 42 170 113 212 212 l26 62 0 820 c0 819 0 820 -22 873 -42 102 -123
183 -225 225 -53 22 -56 22 -848 24 -437 0 -815 -3 -840 -8z"/>
</g>
</svg>
