<?xml version="1.0" encoding="iso-8859-1"?>
<!-- Generator: Adobe Illustrator 18.1.1, SVG Export Plug-In . SVG Version: 6.00 Build 0)  -->
<svg version="1.1" id="Capa_1" xmlns="http://www.w3.org/2000/svg" xmlns:xlink="http://www.w3.org/1999/xlink" x="0px" y="0px"
	 viewBox="0 0 30.725 30.725" style="enable-background:new 0 0 30.725 30.725;" xml:space="preserve">
<g>
	<path d="M30.718,26.476l0.007-19.877c-0.003-0.611-0.499-1.107-1.109-1.107H15.597c-0.433-0.01-0.771-0.807-0.771-1.111V4.254
		c0-0.648-0.528-1.182-1.18-1.182h-7.46c-0.651,0-1.178,0.533-1.178,1.182v0.127c0,0.309-0.341,1.117-0.784,1.117h0.013
		c-0.604,0.008-1.094,0.5-1.094,1.105l0.005,5.754H0.763c0,0-1.056-0.057-0.683,1.199l2.516,12.92c0,0.65,0.453,1.176,1.104,1.176
		h26.474C30.824,27.652,30.718,26.476,30.718,26.476z M29.359,14.021l-0.014,12.975l-2.502-13.908
		c-0.212-0.764-1.075-0.711-1.075-0.711H4.51V7.963h24.85v6.058H29.359z"/>
	<g>
	</g>
	<g>
	</g>
	<g>
	</g>
	<g>
	</g>
	<g>
	</g>
	<g>
	</g>
	<g>
	</g>
	<g>
	</g>
	<g>
	</g>
	<g>
	</g>
	<g>
	</g>
	<g>
	</g>
	<g>
	</g>
	<g>
	</g>
	<g>
	</g>
</g>
<g>
</g>
<g>
</g>
<g>
</g>
<g>
</g>
<g>
</g>
<g>
</g>
<g>
</g>
<g>
</g>
<g>
</g>
<g>
</g>
<g>
</g>
<g>
</g>
<g>
</g>
<g>
</g>
<g>
</g>
</svg>
